<mxfile host="app.diagrams.net" modified="2021-10-15T08:25:09.724Z" agent="5.0 (Windows NT 10.0; Win64; x64) AppleWebKit/537.36 (KHTML, like Gecko) Chrome/94.0.4606.81 Safari/537.36" etag="zwj-C71MajCwNkkE-2G_" version="15.5.2" type="github">
  <diagram id="C5RBs43oDa-KdzZeNtuy" name="Page-1">
    <mxGraphModel dx="1140" dy="946" grid="1" gridSize="10" guides="1" tooltips="1" connect="1" arrows="1" fold="1" page="1" pageScale="1" pageWidth="827" pageHeight="1169" math="0" shadow="0">
      <root>
        <mxCell id="WIyWlLk6GJQsqaUBKTNV-0" />
        <mxCell id="WIyWlLk6GJQsqaUBKTNV-1" parent="WIyWlLk6GJQsqaUBKTNV-0" />
        <mxCell id="zkfFHV4jXpPFQw0GAbJ--0" value="ApartService&#xa;" style="swimlane;fontStyle=2;align=center;verticalAlign=top;childLayout=stackLayout;horizontal=1;startSize=26;horizontalStack=0;resizeParent=1;resizeLast=0;collapsible=1;marginBottom=0;rounded=0;shadow=0;strokeWidth=1;" parent="WIyWlLk6GJQsqaUBKTNV-1" vertex="1">
          <mxGeometry x="160" y="120" width="340" height="80" as="geometry">
            <mxRectangle x="230" y="140" width="160" height="26" as="alternateBounds" />
          </mxGeometry>
        </mxCell>
        <mxCell id="zkfFHV4jXpPFQw0GAbJ--1" value="	List&lt;ApartDto&gt; listApart(String key, String word) &#xa;" style="text;align=left;verticalAlign=top;spacingLeft=4;spacingRight=4;overflow=hidden;rotatable=0;points=[[0,0.5],[1,0.5]];portConstraint=eastwest;" parent="zkfFHV4jXpPFQw0GAbJ--0" vertex="1">
          <mxGeometry y="26" width="340" height="26" as="geometry" />
        </mxCell>
        <mxCell id="zkfFHV4jXpPFQw0GAbJ--2" value="	ApartDto getApart(int no) " style="text;align=left;verticalAlign=top;spacingLeft=4;spacingRight=4;overflow=hidden;rotatable=0;points=[[0,0.5],[1,0.5]];portConstraint=eastwest;rounded=0;shadow=0;html=0;" parent="zkfFHV4jXpPFQw0GAbJ--0" vertex="1">
          <mxGeometry y="52" width="340" height="26" as="geometry" />
        </mxCell>
        <mxCell id="zkfFHV4jXpPFQw0GAbJ--6" value="ApartServiceImpl&#xa;" style="swimlane;fontStyle=0;align=center;verticalAlign=top;childLayout=stackLayout;horizontal=1;startSize=26;horizontalStack=0;resizeParent=1;resizeLast=0;collapsible=1;marginBottom=0;rounded=0;shadow=0;strokeWidth=1;" parent="WIyWlLk6GJQsqaUBKTNV-1" vertex="1">
          <mxGeometry x="175" y="240" width="310" height="200" as="geometry">
            <mxRectangle x="130" y="380" width="160" height="26" as="alternateBounds" />
          </mxGeometry>
        </mxCell>
        <mxCell id="zkfFHV4jXpPFQw0GAbJ--7" value="apartService : ApartService" style="text;align=left;verticalAlign=top;spacingLeft=4;spacingRight=4;overflow=hidden;rotatable=0;points=[[0,0.5],[1,0.5]];portConstraint=eastwest;" parent="zkfFHV4jXpPFQw0GAbJ--6" vertex="1">
          <mxGeometry y="26" width="310" height="26" as="geometry" />
        </mxCell>
        <mxCell id="zkfFHV4jXpPFQw0GAbJ--8" value="apartDao ApartDao" style="text;align=left;verticalAlign=top;spacingLeft=4;spacingRight=4;overflow=hidden;rotatable=0;points=[[0,0.5],[1,0.5]];portConstraint=eastwest;rounded=0;shadow=0;html=0;" parent="zkfFHV4jXpPFQw0GAbJ--6" vertex="1">
          <mxGeometry y="52" width="310" height="26" as="geometry" />
        </mxCell>
        <mxCell id="zkfFHV4jXpPFQw0GAbJ--9" value="" style="line;html=1;strokeWidth=1;align=left;verticalAlign=middle;spacingTop=-1;spacingLeft=3;spacingRight=3;rotatable=0;labelPosition=right;points=[];portConstraint=eastwest;" parent="zkfFHV4jXpPFQw0GAbJ--6" vertex="1">
          <mxGeometry y="78" width="310" height="8" as="geometry" />
        </mxCell>
        <mxCell id="zkfFHV4jXpPFQw0GAbJ--10" value="private ApartServiceImpl()" style="text;align=left;verticalAlign=top;spacingLeft=4;spacingRight=4;overflow=hidden;rotatable=0;points=[[0,0.5],[1,0.5]];portConstraint=eastwest;fontStyle=4" parent="zkfFHV4jXpPFQw0GAbJ--6" vertex="1">
          <mxGeometry y="86" width="310" height="26" as="geometry" />
        </mxCell>
        <mxCell id="zkfFHV4jXpPFQw0GAbJ--11" value="	public static ApartService getApartService()" style="text;align=left;verticalAlign=top;spacingLeft=4;spacingRight=4;overflow=hidden;rotatable=0;points=[[0,0.5],[1,0.5]];portConstraint=eastwest;" parent="zkfFHV4jXpPFQw0GAbJ--6" vertex="1">
          <mxGeometry y="112" width="310" height="26" as="geometry" />
        </mxCell>
        <mxCell id="CiIYVEL3it8EvJjRxlsi-13" value="	public List&lt;ApartDto&gt; listApart(String key, String word)" style="text;align=left;verticalAlign=top;spacingLeft=4;spacingRight=4;overflow=hidden;rotatable=0;points=[[0,0.5],[1,0.5]];portConstraint=eastwest;" vertex="1" parent="zkfFHV4jXpPFQw0GAbJ--6">
          <mxGeometry y="138" width="310" height="26" as="geometry" />
        </mxCell>
        <mxCell id="CiIYVEL3it8EvJjRxlsi-12" value="	public ApartDto getApart(int no)" style="text;align=left;verticalAlign=top;spacingLeft=4;spacingRight=4;overflow=hidden;rotatable=0;points=[[0,0.5],[1,0.5]];portConstraint=eastwest;" vertex="1" parent="zkfFHV4jXpPFQw0GAbJ--6">
          <mxGeometry y="164" width="310" height="26" as="geometry" />
        </mxCell>
        <mxCell id="zkfFHV4jXpPFQw0GAbJ--13" value="ApartDto&#xa;" style="swimlane;fontStyle=0;align=center;verticalAlign=top;childLayout=stackLayout;horizontal=1;startSize=26;horizontalStack=0;resizeParent=1;resizeLast=0;collapsible=1;marginBottom=0;rounded=0;shadow=0;strokeWidth=1;" parent="WIyWlLk6GJQsqaUBKTNV-1" vertex="1">
          <mxGeometry x="205" y="480" width="160" height="220" as="geometry">
            <mxRectangle x="340" y="380" width="170" height="26" as="alternateBounds" />
          </mxGeometry>
        </mxCell>
        <mxCell id="zkfFHV4jXpPFQw0GAbJ--14" value="int no;&#xa;	String dong;&#xa;	String aptName;&#xa;	String code;&#xa;	String dealAmount;&#xa;	String buildYear;&#xa;	String area;&#xa;	String floor;&#xa;	String lat;&#xa;	String lng;" style="text;align=left;verticalAlign=top;spacingLeft=4;spacingRight=4;overflow=hidden;rotatable=0;points=[[0,0.5],[1,0.5]];portConstraint=eastwest;" parent="zkfFHV4jXpPFQw0GAbJ--13" vertex="1">
          <mxGeometry y="26" width="160" height="154" as="geometry" />
        </mxCell>
        <mxCell id="zkfFHV4jXpPFQw0GAbJ--15" value="" style="line;html=1;strokeWidth=1;align=left;verticalAlign=middle;spacingTop=-1;spacingLeft=3;spacingRight=3;rotatable=0;labelPosition=right;points=[];portConstraint=eastwest;" parent="zkfFHV4jXpPFQw0GAbJ--13" vertex="1">
          <mxGeometry y="180" width="160" height="8" as="geometry" />
        </mxCell>
        <mxCell id="CiIYVEL3it8EvJjRxlsi-21" value="public String getXxx()&lt;br&gt;public void setXxx()" style="text;html=1;align=center;verticalAlign=middle;resizable=0;points=[];autosize=1;strokeColor=none;fillColor=none;" vertex="1" parent="zkfFHV4jXpPFQw0GAbJ--13">
          <mxGeometry y="188" width="160" height="30" as="geometry" />
        </mxCell>
        <mxCell id="zkfFHV4jXpPFQw0GAbJ--16" value="" style="endArrow=block;endSize=10;endFill=0;shadow=0;strokeWidth=1;rounded=0;edgeStyle=elbowEdgeStyle;elbow=vertical;" parent="WIyWlLk6GJQsqaUBKTNV-1" source="zkfFHV4jXpPFQw0GAbJ--6" target="zkfFHV4jXpPFQw0GAbJ--0" edge="1">
          <mxGeometry width="160" relative="1" as="geometry">
            <mxPoint x="140" y="373" as="sourcePoint" />
            <mxPoint x="240" y="271" as="targetPoint" />
            <Array as="points">
              <mxPoint x="250" y="210" />
              <mxPoint x="105" y="280" />
            </Array>
          </mxGeometry>
        </mxCell>
        <mxCell id="CiIYVEL3it8EvJjRxlsi-0" value="ApartDaoImpl&#xa;" style="swimlane;fontStyle=0;align=center;verticalAlign=top;childLayout=stackLayout;horizontal=1;startSize=26;horizontalStack=0;resizeParent=1;resizeLast=0;collapsible=1;marginBottom=0;rounded=0;shadow=0;strokeWidth=1;" vertex="1" parent="WIyWlLk6GJQsqaUBKTNV-1">
          <mxGeometry x="530" y="245" width="310" height="180" as="geometry">
            <mxRectangle x="340" y="380" width="170" height="26" as="alternateBounds" />
          </mxGeometry>
        </mxCell>
        <mxCell id="CiIYVEL3it8EvJjRxlsi-1" value="apartDao : ApartDao&#xa;dbUtil : DBUtil" style="text;align=left;verticalAlign=top;spacingLeft=4;spacingRight=4;overflow=hidden;rotatable=0;points=[[0,0.5],[1,0.5]];portConstraint=eastwest;" vertex="1" parent="CiIYVEL3it8EvJjRxlsi-0">
          <mxGeometry y="26" width="310" height="44" as="geometry" />
        </mxCell>
        <mxCell id="CiIYVEL3it8EvJjRxlsi-2" value="" style="line;html=1;strokeWidth=1;align=left;verticalAlign=middle;spacingTop=-1;spacingLeft=3;spacingRight=3;rotatable=0;labelPosition=right;points=[];portConstraint=eastwest;" vertex="1" parent="CiIYVEL3it8EvJjRxlsi-0">
          <mxGeometry y="70" width="310" height="8" as="geometry" />
        </mxCell>
        <mxCell id="CiIYVEL3it8EvJjRxlsi-15" value="private ApartDaoImpl()&#xa;public static ApartDao getApartDao()&#xa;public List&lt;ApartDto&gt; listApart(String key, String word)&#xa;public ApartDto getApart(int no)&#xa;" style="text;align=left;verticalAlign=top;spacingLeft=4;spacingRight=4;overflow=hidden;rotatable=0;points=[[0,0.5],[1,0.5]];portConstraint=eastwest;" vertex="1" parent="CiIYVEL3it8EvJjRxlsi-0">
          <mxGeometry y="78" width="310" height="102" as="geometry" />
        </mxCell>
        <mxCell id="CiIYVEL3it8EvJjRxlsi-3" value="ApartDao&#xa;" style="swimlane;fontStyle=0;align=center;verticalAlign=top;childLayout=stackLayout;horizontal=1;startSize=26;horizontalStack=0;resizeParent=1;resizeLast=0;collapsible=1;marginBottom=0;rounded=0;shadow=0;strokeWidth=1;" vertex="1" parent="WIyWlLk6GJQsqaUBKTNV-1">
          <mxGeometry x="530" y="140" width="274" height="80" as="geometry">
            <mxRectangle x="340" y="380" width="170" height="26" as="alternateBounds" />
          </mxGeometry>
        </mxCell>
        <mxCell id="CiIYVEL3it8EvJjRxlsi-4" value="List&lt;ApartDto&gt; listApart(String key, String word)" style="text;align=left;verticalAlign=top;spacingLeft=4;spacingRight=4;overflow=hidden;rotatable=0;points=[[0,0.5],[1,0.5]];portConstraint=eastwest;" vertex="1" parent="CiIYVEL3it8EvJjRxlsi-3">
          <mxGeometry y="26" width="274" height="26" as="geometry" />
        </mxCell>
        <mxCell id="CiIYVEL3it8EvJjRxlsi-14" value="ApartDto getApart(int no)" style="text;align=left;verticalAlign=top;spacingLeft=4;spacingRight=4;overflow=hidden;rotatable=0;points=[[0,0.5],[1,0.5]];portConstraint=eastwest;" vertex="1" parent="CiIYVEL3it8EvJjRxlsi-3">
          <mxGeometry y="52" width="274" height="26" as="geometry" />
        </mxCell>
        <mxCell id="CiIYVEL3it8EvJjRxlsi-9" value="Apart&lt;br&gt;Controller" style="whiteSpace=wrap;html=1;" vertex="1" parent="WIyWlLk6GJQsqaUBKTNV-1">
          <mxGeometry x="10" y="256" width="120" height="60" as="geometry" />
        </mxCell>
        <mxCell id="CiIYVEL3it8EvJjRxlsi-10" value="Member&lt;br&gt;Controller" style="whiteSpace=wrap;html=1;" vertex="1" parent="WIyWlLk6GJQsqaUBKTNV-1">
          <mxGeometry x="10" y="316" width="120" height="60" as="geometry" />
        </mxCell>
        <mxCell id="CiIYVEL3it8EvJjRxlsi-11" value="View" style="whiteSpace=wrap;html=1;" vertex="1" parent="WIyWlLk6GJQsqaUBKTNV-1">
          <mxGeometry x="20" y="450" width="120" height="60" as="geometry" />
        </mxCell>
        <mxCell id="CiIYVEL3it8EvJjRxlsi-18" value="" style="endArrow=block;endSize=10;endFill=0;shadow=0;strokeWidth=1;rounded=0;edgeStyle=elbowEdgeStyle;elbow=vertical;" edge="1" parent="WIyWlLk6GJQsqaUBKTNV-1">
          <mxGeometry width="160" relative="1" as="geometry">
            <mxPoint x="680" y="245" as="sourcePoint" />
            <mxPoint x="680" y="205" as="targetPoint" />
            <Array as="points">
              <mxPoint x="680" y="215" />
              <mxPoint x="535" y="285" />
            </Array>
          </mxGeometry>
        </mxCell>
        <mxCell id="CiIYVEL3it8EvJjRxlsi-19" value="" style="endArrow=diamondThin;endFill=0;endSize=24;html=1;rounded=0;exitX=0;exitY=0.5;exitDx=0;exitDy=0;entryX=1.016;entryY=0.154;entryDx=0;entryDy=0;entryPerimeter=0;" edge="1" parent="WIyWlLk6GJQsqaUBKTNV-1" source="CiIYVEL3it8EvJjRxlsi-4" target="zkfFHV4jXpPFQw0GAbJ--10">
          <mxGeometry width="160" relative="1" as="geometry">
            <mxPoint x="510" y="540" as="sourcePoint" />
            <mxPoint x="670" y="540" as="targetPoint" />
          </mxGeometry>
        </mxCell>
        <mxCell id="CiIYVEL3it8EvJjRxlsi-22" value="" style="endArrow=diamondThin;endFill=0;endSize=24;html=1;rounded=0;exitX=0;exitY=0.5;exitDx=0;exitDy=0;entryX=1;entryY=0.5;entryDx=0;entryDy=0;" edge="1" parent="WIyWlLk6GJQsqaUBKTNV-1" source="zkfFHV4jXpPFQw0GAbJ--14" target="CiIYVEL3it8EvJjRxlsi-9">
          <mxGeometry width="160" relative="1" as="geometry">
            <mxPoint x="540" y="189" as="sourcePoint" />
            <mxPoint x="499.96000000000004" y="340.004" as="targetPoint" />
          </mxGeometry>
        </mxCell>
        <mxCell id="CiIYVEL3it8EvJjRxlsi-23" value="" style="endArrow=block;endSize=10;endFill=0;shadow=0;strokeWidth=1;rounded=0;edgeStyle=elbowEdgeStyle;elbow=vertical;entryX=0.5;entryY=0;entryDx=0;entryDy=0;" edge="1" parent="WIyWlLk6GJQsqaUBKTNV-1" target="CiIYVEL3it8EvJjRxlsi-11">
          <mxGeometry width="160" relative="1" as="geometry">
            <mxPoint x="80" y="380" as="sourcePoint" />
            <mxPoint x="260" y="210" as="targetPoint" />
            <Array as="points">
              <mxPoint x="100" y="390" />
            </Array>
          </mxGeometry>
        </mxCell>
        <mxCell id="CiIYVEL3it8EvJjRxlsi-24" value="" style="endArrow=diamondThin;endFill=0;endSize=24;html=1;rounded=0;exitX=1.038;exitY=0.351;exitDx=0;exitDy=0;entryX=-0.008;entryY=0.439;entryDx=0;entryDy=0;entryPerimeter=0;exitPerimeter=0;" edge="1" parent="WIyWlLk6GJQsqaUBKTNV-1" source="zkfFHV4jXpPFQw0GAbJ--14" target="CiIYVEL3it8EvJjRxlsi-15">
          <mxGeometry width="160" relative="1" as="geometry">
            <mxPoint x="540" y="189" as="sourcePoint" />
            <mxPoint x="499.96000000000004" y="340.004" as="targetPoint" />
          </mxGeometry>
        </mxCell>
        <mxCell id="CiIYVEL3it8EvJjRxlsi-25" value="MemberService" style="swimlane;fontStyle=2;align=center;verticalAlign=top;childLayout=stackLayout;horizontal=1;startSize=26;horizontalStack=0;resizeParent=1;resizeLast=0;collapsible=1;marginBottom=0;rounded=0;shadow=0;strokeWidth=1;" vertex="1" parent="WIyWlLk6GJQsqaUBKTNV-1">
          <mxGeometry x="160" y="710" width="390" height="110" as="geometry">
            <mxRectangle x="230" y="140" width="160" height="26" as="alternateBounds" />
          </mxGeometry>
        </mxCell>
        <mxCell id="CiIYVEL3it8EvJjRxlsi-26" value="int idCheck(String id) throws Exception;&#xa;	void registerMember(MemberDto memberDto) throws Exception;&#xa;	MemberDto login(String id, String pass) throws Exception;&#xa;	void updateMember(MemberDto memberDto) throws Exception;&#xa;	void deleteMember(String id) throws Exception;" style="text;align=left;verticalAlign=top;spacingLeft=4;spacingRight=4;overflow=hidden;rotatable=0;points=[[0,0.5],[1,0.5]];portConstraint=eastwest;" vertex="1" parent="CiIYVEL3it8EvJjRxlsi-25">
          <mxGeometry y="26" width="390" height="84" as="geometry" />
        </mxCell>
        <mxCell id="CiIYVEL3it8EvJjRxlsi-28" value="MemberServiceImpl" style="swimlane;fontStyle=0;align=center;verticalAlign=top;childLayout=stackLayout;horizontal=1;startSize=26;horizontalStack=0;resizeParent=1;resizeLast=0;collapsible=1;marginBottom=0;rounded=0;shadow=0;strokeWidth=1;" vertex="1" parent="WIyWlLk6GJQsqaUBKTNV-1">
          <mxGeometry x="175" y="840" width="365" height="200" as="geometry">
            <mxRectangle x="130" y="380" width="160" height="26" as="alternateBounds" />
          </mxGeometry>
        </mxCell>
        <mxCell id="CiIYVEL3it8EvJjRxlsi-29" value="MemberService memberService" style="text;align=left;verticalAlign=top;spacingLeft=4;spacingRight=4;overflow=hidden;rotatable=0;points=[[0,0.5],[1,0.5]];portConstraint=eastwest;" vertex="1" parent="CiIYVEL3it8EvJjRxlsi-28">
          <mxGeometry y="26" width="365" height="26" as="geometry" />
        </mxCell>
        <mxCell id="CiIYVEL3it8EvJjRxlsi-30" value="MemberDao memberDao;" style="text;align=left;verticalAlign=top;spacingLeft=4;spacingRight=4;overflow=hidden;rotatable=0;points=[[0,0.5],[1,0.5]];portConstraint=eastwest;rounded=0;shadow=0;html=0;" vertex="1" parent="CiIYVEL3it8EvJjRxlsi-28">
          <mxGeometry y="52" width="365" height="26" as="geometry" />
        </mxCell>
        <mxCell id="CiIYVEL3it8EvJjRxlsi-31" value="" style="line;html=1;strokeWidth=1;align=left;verticalAlign=middle;spacingTop=-1;spacingLeft=3;spacingRight=3;rotatable=0;labelPosition=right;points=[];portConstraint=eastwest;" vertex="1" parent="CiIYVEL3it8EvJjRxlsi-28">
          <mxGeometry y="78" width="365" height="8" as="geometry" />
        </mxCell>
        <mxCell id="CiIYVEL3it8EvJjRxlsi-32" value="int idCheck(String id) throws Exception;&#xa;void registerMember(MemberDto memberDto) throws Exception;&#xa;MemberDto login(String id, String pass) throws Exception;&#xa;void updateMember(MemberDto memberDto) throws Exception;&#xa;void deleteMember(String id) throws Exception;" style="text;align=left;verticalAlign=top;spacingLeft=4;spacingRight=4;overflow=hidden;rotatable=0;points=[[0,0.5],[1,0.5]];portConstraint=eastwest;fontStyle=4" vertex="1" parent="CiIYVEL3it8EvJjRxlsi-28">
          <mxGeometry y="86" width="365" height="94" as="geometry" />
        </mxCell>
        <mxCell id="CiIYVEL3it8EvJjRxlsi-36" value="MemberDto" style="swimlane;fontStyle=0;align=center;verticalAlign=top;childLayout=stackLayout;horizontal=1;startSize=30;horizontalStack=0;resizeParent=1;resizeLast=0;collapsible=1;marginBottom=0;rounded=0;shadow=0;strokeWidth=1;" vertex="1" parent="WIyWlLk6GJQsqaUBKTNV-1">
          <mxGeometry x="160" y="1060" width="190" height="160" as="geometry">
            <mxRectangle x="340" y="380" width="170" height="26" as="alternateBounds" />
          </mxGeometry>
        </mxCell>
        <mxCell id="CiIYVEL3it8EvJjRxlsi-37" value="private String userName;&#xa;	private String userId;&#xa;	private String userPwd;&#xa;	private String email;&#xa;	private String joinDate;" style="text;align=left;verticalAlign=top;spacingLeft=4;spacingRight=4;overflow=hidden;rotatable=0;points=[[0,0.5],[1,0.5]];portConstraint=eastwest;" vertex="1" parent="CiIYVEL3it8EvJjRxlsi-36">
          <mxGeometry y="30" width="190" height="90" as="geometry" />
        </mxCell>
        <mxCell id="CiIYVEL3it8EvJjRxlsi-38" value="" style="line;html=1;strokeWidth=1;align=left;verticalAlign=middle;spacingTop=-1;spacingLeft=3;spacingRight=3;rotatable=0;labelPosition=right;points=[];portConstraint=eastwest;" vertex="1" parent="CiIYVEL3it8EvJjRxlsi-36">
          <mxGeometry y="120" width="190" height="8" as="geometry" />
        </mxCell>
        <mxCell id="CiIYVEL3it8EvJjRxlsi-39" value="public String getXxx()&lt;br&gt;public void setXxx()" style="text;html=1;align=center;verticalAlign=middle;resizable=0;points=[];autosize=1;strokeColor=none;fillColor=none;" vertex="1" parent="CiIYVEL3it8EvJjRxlsi-36">
          <mxGeometry y="128" width="190" height="30" as="geometry" />
        </mxCell>
        <mxCell id="CiIYVEL3it8EvJjRxlsi-40" value="" style="endArrow=block;endSize=10;endFill=0;shadow=0;strokeWidth=1;rounded=0;edgeStyle=elbowEdgeStyle;elbow=vertical;" edge="1" parent="WIyWlLk6GJQsqaUBKTNV-1" source="CiIYVEL3it8EvJjRxlsi-28" target="CiIYVEL3it8EvJjRxlsi-25">
          <mxGeometry width="160" relative="1" as="geometry">
            <mxPoint x="170" y="973" as="sourcePoint" />
            <mxPoint x="270" y="871" as="targetPoint" />
            <Array as="points">
              <mxPoint x="280" y="810" />
              <mxPoint x="135" y="880" />
            </Array>
          </mxGeometry>
        </mxCell>
        <mxCell id="CiIYVEL3it8EvJjRxlsi-41" value="MemberDaoImpl" style="swimlane;fontStyle=0;align=center;verticalAlign=top;childLayout=stackLayout;horizontal=1;startSize=26;horizontalStack=0;resizeParent=1;resizeLast=0;collapsible=1;marginBottom=0;rounded=0;shadow=0;strokeWidth=1;" vertex="1" parent="WIyWlLk6GJQsqaUBKTNV-1">
          <mxGeometry x="580" y="840" width="380" height="180" as="geometry">
            <mxRectangle x="340" y="380" width="170" height="26" as="alternateBounds" />
          </mxGeometry>
        </mxCell>
        <mxCell id="CiIYVEL3it8EvJjRxlsi-42" value="MemberDao memberDao&#xa;DBUtil dbUtil;" style="text;align=left;verticalAlign=top;spacingLeft=4;spacingRight=4;overflow=hidden;rotatable=0;points=[[0,0.5],[1,0.5]];portConstraint=eastwest;" vertex="1" parent="CiIYVEL3it8EvJjRxlsi-41">
          <mxGeometry y="26" width="380" height="44" as="geometry" />
        </mxCell>
        <mxCell id="CiIYVEL3it8EvJjRxlsi-43" value="" style="line;html=1;strokeWidth=1;align=left;verticalAlign=middle;spacingTop=-1;spacingLeft=3;spacingRight=3;rotatable=0;labelPosition=right;points=[];portConstraint=eastwest;" vertex="1" parent="CiIYVEL3it8EvJjRxlsi-41">
          <mxGeometry y="70" width="380" height="8" as="geometry" />
        </mxCell>
        <mxCell id="CiIYVEL3it8EvJjRxlsi-44" value="int idCheck(String id) throws Exception;&#xa;void registerMember(MemberDto memberDto) throws Exception;&#xa;MemberDto login(String id, String pass) throws Exception;&#xa;void updateMember(MemberDto memberDto) throws Exception;&#xa;void deleteMember(String id) throws Exception;" style="text;align=left;verticalAlign=top;spacingLeft=4;spacingRight=4;overflow=hidden;rotatable=0;points=[[0,0.5],[1,0.5]];portConstraint=eastwest;" vertex="1" parent="CiIYVEL3it8EvJjRxlsi-41">
          <mxGeometry y="78" width="380" height="102" as="geometry" />
        </mxCell>
        <mxCell id="CiIYVEL3it8EvJjRxlsi-45" value="MemberDao" style="swimlane;fontStyle=0;align=center;verticalAlign=top;childLayout=stackLayout;horizontal=1;startSize=26;horizontalStack=0;resizeParent=1;resizeLast=0;collapsible=1;marginBottom=0;rounded=0;shadow=0;strokeWidth=1;" vertex="1" parent="WIyWlLk6GJQsqaUBKTNV-1">
          <mxGeometry x="590" y="670" width="370" height="130" as="geometry">
            <mxRectangle x="340" y="380" width="170" height="26" as="alternateBounds" />
          </mxGeometry>
        </mxCell>
        <mxCell id="CiIYVEL3it8EvJjRxlsi-46" value="int idCheck(String id) throws Exception;&#xa;void registerMember(MemberDto memberDto) throws Exception;&#xa;	MemberDto login(String id, String pass) throws Exception;&#xa;	void updateMember(MemberDto memberDto) throws Exception;&#xa;	void deleteMember(String id) throws Exception;" style="text;align=left;verticalAlign=top;spacingLeft=4;spacingRight=4;overflow=hidden;rotatable=0;points=[[0,0.5],[1,0.5]];portConstraint=eastwest;" vertex="1" parent="CiIYVEL3it8EvJjRxlsi-45">
          <mxGeometry y="26" width="370" height="104" as="geometry" />
        </mxCell>
        <mxCell id="CiIYVEL3it8EvJjRxlsi-48" value="" style="endArrow=block;endSize=10;endFill=0;shadow=0;strokeWidth=1;rounded=0;edgeStyle=elbowEdgeStyle;elbow=vertical;" edge="1" parent="WIyWlLk6GJQsqaUBKTNV-1" target="CiIYVEL3it8EvJjRxlsi-46">
          <mxGeometry width="160" relative="1" as="geometry">
            <mxPoint x="710.0000000000002" y="845" as="sourcePoint" />
            <mxPoint x="710.0000000000002" y="805" as="targetPoint" />
            <Array as="points">
              <mxPoint x="710" y="815" />
              <mxPoint x="565" y="885" />
            </Array>
          </mxGeometry>
        </mxCell>
        <mxCell id="CiIYVEL3it8EvJjRxlsi-49" value="" style="endArrow=diamondThin;endFill=0;endSize=24;html=1;rounded=0;exitX=0;exitY=0.5;exitDx=0;exitDy=0;entryX=1.016;entryY=0.154;entryDx=0;entryDy=0;entryPerimeter=0;" edge="1" parent="WIyWlLk6GJQsqaUBKTNV-1" source="CiIYVEL3it8EvJjRxlsi-46" target="CiIYVEL3it8EvJjRxlsi-32">
          <mxGeometry width="160" relative="1" as="geometry">
            <mxPoint x="540" y="1140" as="sourcePoint" />
            <mxPoint x="700" y="1140" as="targetPoint" />
          </mxGeometry>
        </mxCell>
        <mxCell id="CiIYVEL3it8EvJjRxlsi-50" value="" style="endArrow=diamondThin;endFill=0;endSize=24;html=1;rounded=0;exitX=1.038;exitY=0.351;exitDx=0;exitDy=0;entryX=-0.008;entryY=0.439;entryDx=0;entryDy=0;entryPerimeter=0;exitPerimeter=0;" edge="1" parent="WIyWlLk6GJQsqaUBKTNV-1" source="CiIYVEL3it8EvJjRxlsi-37" target="CiIYVEL3it8EvJjRxlsi-44">
          <mxGeometry width="160" relative="1" as="geometry">
            <mxPoint x="570" y="789" as="sourcePoint" />
            <mxPoint x="529.96" y="940.004" as="targetPoint" />
          </mxGeometry>
        </mxCell>
        <mxCell id="CiIYVEL3it8EvJjRxlsi-51" value="" style="endArrow=diamondThin;endFill=0;endSize=24;html=1;rounded=0;exitX=-0.021;exitY=0.31;exitDx=0;exitDy=0;entryX=1;entryY=0.75;entryDx=0;entryDy=0;exitPerimeter=0;" edge="1" parent="WIyWlLk6GJQsqaUBKTNV-1" source="CiIYVEL3it8EvJjRxlsi-37" target="CiIYVEL3it8EvJjRxlsi-10">
          <mxGeometry width="160" relative="1" as="geometry">
            <mxPoint x="264" y="593" as="sourcePoint" />
            <mxPoint x="140" y="296" as="targetPoint" />
          </mxGeometry>
        </mxCell>
      </root>
    </mxGraphModel>
  </diagram>
</mxfile>
